<svg width="27" height="24" viewBox="0 0 27 24" fill="none" xmlns="http://www.w3.org/2000/svg">
<path d="M22.5833 22.5833H3.91667C1.78333 22.5833 1.25 20.806 1.25 19.9167V3.91667C1.25 3.20942 1.53095 2.53115 2.03105 2.03105C2.53115 1.53095 3.20942 1.25 3.91667 1.25H17.25C17.9572 1.25 18.6355 1.53095 19.1356 2.03105C19.6357 2.53115 19.9167 3.20942 19.9167 3.91667V11.9167M22.5833 22.5833C21.694 22.5833 19.9167 22.05 19.9167 19.9167V11.9167M22.5833 22.5833C24.7167 22.5833 25.25 20.806 25.25 19.9167V11.9167H19.9167" stroke="#26448C" stroke-width="2.5" stroke-linecap="round" stroke-linejoin="round"/>
<path d="M6.5835 17.25H14.5835M13.2502 9.25004C13.2502 9.95728 12.9692 10.6356 12.4691 11.1357C11.969 11.6358 11.2907 11.9167 10.5835 11.9167C9.87625 11.9167 9.19798 11.6358 8.69788 11.1357C8.19778 10.6356 7.91683 9.95728 7.91683 9.25004C7.91683 8.5428 8.19778 7.86452 8.69788 7.36442C9.19798 6.86433 9.87625 6.58337 10.5835 6.58337C11.2907 6.58337 11.969 6.86433 12.4691 7.36442C12.9692 7.86452 13.2502 8.5428 13.2502 9.25004Z" stroke="#26448C" stroke-width="2.5" stroke-linecap="round" stroke-linejoin="round"/>
</svg>
